<svg width="40" height="31" viewBox="0 0 40 31" fill="none" xmlns="http://www.w3.org/2000/svg">
<path d="M4.406 10.342C5.40548 9.48014 6.68024 9.00414 8 9C10.69 9 12.923 11 13.166 13.579C14.758 13.804 16 15.137 16 16.773C16 18.569 14.502 20 12.687 20H3.781C1.708 20 0 18.366 0 16.318C0 14.555 1.266 13.095 2.942 12.725C3.085 11.862 3.64 11.002 4.406 10.342V10.342Z" fill="white"/>
<path d="M23.3045 23.976C24.0541 23.3492 25.0102 23.003 26 23C28.0175 23 29.6923 24.4545 29.8745 26.3302C31.0685 26.4938 32 27.4633 32 28.6531C32 29.9593 30.8765 31 29.5153 31H22.8357C21.281 31 20 29.8116 20 28.3222C20 27.04 20.9495 25.9782 22.2065 25.7091C22.3137 25.0815 22.73 24.456 23.3045 23.976V23.976Z" fill="white"/>
<path d="M27.6814 1.342C28.7433 0.480135 30.0978 0.00413852 31.5 0C34.3581 0 36.7307 2 36.9889 4.579C38.6804 4.804 40 6.137 40 7.773C40 9.569 38.4084 11 36.4799 11H27.0173C24.8147 11 23 9.366 23 7.318C23 5.555 24.3451 4.095 26.1259 3.725C26.2778 2.862 26.8675 2.002 27.6814 1.342V1.342Z" fill="white"/>
</svg>
