<svg width="30" height="26" viewBox="0 0 30 26" fill="none" xmlns="http://www.w3.org/2000/svg">
<path d="M4.83839 8.23936L3.33949 8.46747L2.66944 9.88996C2.65114 9.9289 2.62103 9.96043 2.58384 9.9796C2.49057 10.0278 2.37722 9.98763 2.33058 9.88996L1.66053 8.46747L0.161629 8.23936C0.120304 8.23318 0.0825219 8.21278 0.0535947 8.18186C0.0186233 8.14422 -0.000647562 8.09359 1.6616e-05 8.04107C0.000680794 7.98856 0.0212257 7.93848 0.0571368 7.90182L1.14161 6.79462L0.8854 5.23119C0.879392 5.19482 0.883235 5.15741 0.896494 5.12321C0.909753 5.08902 0.931897 5.05939 0.960415 5.0377C0.988933 5.01601 1.02268 5.00313 1.05784 5.0005C1.093 4.99788 1.12815 5.00562 1.15932 5.02285L2.50001 5.76098L3.8407 5.02285C3.8773 5.00245 3.91981 4.99565 3.96054 5.00307C4.06326 5.02162 4.13233 5.12362 4.11462 5.23119L3.85841 6.79462L4.94289 7.90182C4.9724 7.93211 4.99189 7.97168 4.99779 8.01495C5.01373 8.12314 4.94171 8.22328 4.83839 8.23936Z" fill="#E2DF8A"/>
<path d="M20.8061 3.88723L19.0074 4.16097L18.2033 5.86795C18.1814 5.91469 18.1452 5.95252 18.1006 5.97552C17.9887 6.03338 17.8527 5.98516 17.7967 5.86795L16.9926 4.16097L15.194 3.88723C15.1444 3.87981 15.099 3.85533 15.0643 3.81824C15.0223 3.77307 14.9992 3.7123 15 3.64929C15.0008 3.58628 15.0255 3.52617 15.0686 3.48218L16.3699 2.15354L16.0625 0.277423C16.0553 0.23378 16.0599 0.188895 16.0758 0.147857C16.0917 0.10682 16.1183 0.0712719 16.1525 0.0452442C16.1867 0.0192165 16.2272 0.00375064 16.2694 0.000600525C16.3116 -0.00254959 16.3538 0.00674203 16.3912 0.0274217L18 0.913182L19.6088 0.0274217C19.6528 0.00294088 19.7038 -0.00521903 19.7527 0.00368308C19.8759 0.0259384 19.9588 0.148342 19.9375 0.277423L19.6301 2.15354L20.9315 3.48218C20.9669 3.51853 20.9903 3.56601 20.9973 3.61794C21.0165 3.74776 20.93 3.86794 20.8061 3.88723Z" fill="#E2DF8A"/>
<path d="M29.903 13.9436L29.0037 14.0805L28.6017 14.934C28.5907 14.9573 28.5726 14.9763 28.5503 14.9878C28.4943 15.0167 28.4263 14.9926 28.3983 14.934L27.9963 14.0805L27.097 13.9436C27.0722 13.9399 27.0495 13.9277 27.0322 13.9091C27.0112 13.8865 26.9996 13.8562 27 13.8246C27.0004 13.7931 27.0127 13.7631 27.0343 13.7411L27.685 13.0768L27.5312 12.1387C27.5276 12.1169 27.5299 12.0944 27.5379 12.0739C27.5459 12.0534 27.5591 12.0356 27.5762 12.0226C27.5934 12.0096 27.6136 12.0019 27.6347 12.0003C27.6558 11.9987 27.6769 12.0034 27.6956 12.0137L28.5 12.4566L29.3044 12.0137C29.3264 12.0015 29.3519 11.9974 29.3763 12.0018C29.438 12.013 29.4794 12.0742 29.4688 12.1387L29.315 13.0768L29.9657 13.7411C29.9834 13.7593 29.9951 13.783 29.9987 13.809C30.0082 13.8739 29.965 13.934 29.903 13.9436Z" fill="#E2DF8A"/>
<path d="M19.7414 23.183L17.3432 23.548L16.2711 25.8239C16.2418 25.8862 16.1937 25.9367 16.1341 25.9674C15.9849 26.0445 15.8035 25.9802 15.7289 25.8239L14.6569 23.548L12.2586 23.183C12.1925 23.1731 12.132 23.1404 12.0858 23.091C12.0298 23.0308 11.999 22.9497 12 22.8657C12.0011 22.7817 12.034 22.7016 12.0914 22.6429L13.8266 20.8714L13.4166 18.3699C13.407 18.3117 13.4132 18.2519 13.4344 18.1971C13.4556 18.1424 13.491 18.095 13.5367 18.0603C13.5823 18.0256 13.6363 18.005 13.6925 18.0008C13.7488 17.9966 13.805 18.009 13.8549 18.0366L16 19.2176L18.1451 18.0366C18.2037 18.0039 18.2717 17.993 18.3369 18.0049C18.5012 18.0346 18.6117 18.1978 18.5834 18.3699L18.1735 20.8714L19.9086 22.6429C19.9558 22.6914 19.987 22.7547 19.9965 22.8239C20.022 22.997 19.9067 23.1573 19.7414 23.183Z" fill="#E2DF8A"/>
</svg>
